<?xml version="1.0" standalone="no"?>
<!DOCTYPE svg PUBLIC "-//W3C//DTD SVG 20010904//EN"
 "http://www.w3.org/TR/2001/REC-SVG-20010904/DTD/svg10.dtd">
<svg version="1.0" xmlns="http://www.w3.org/2000/svg"
 width="203.000000pt" height="97.000000pt" viewBox="0 0 203.000000 97.000000"
 preserveAspectRatio="xMidYMid meet">
<metadata>
Created by potrace 1.16, written by Peter Selinger 2001-2019
</metadata>
<g transform="translate(0.000000,97.000000) scale(0.100000,-0.100000)"
fill="#000000" stroke="none">
<path d="M1203 828 c-6 -7 -14 -33 -17 -58 -3 -25 -10 -84 -17 -132 l-11 -87
-28 14 c-16 8 -35 15 -41 15 -7 0 -21 7 -31 16 -16 16 -18 15 -24 0 -8 -22 0
-28 59 -50 27 -10 51 -24 54 -31 2 -8 -13 -51 -34 -97 -48 -101 -134 -198
-176 -198 l-27 0 0 93 c0 50 4 97 8 103 4 6 27 15 52 20 29 6 45 14 45 24 0
16 -2 16 -52 5 -28 -5 -32 -3 -35 17 -4 29 -32 30 -36 1 -2 -12 -9 -26 -15
-32 -7 -5 -104 -33 -215 -60 -111 -28 -236 -63 -278 -77 l-75 -25 -28 20 c-16
11 -34 34 -41 51 -12 28 -10 38 16 98 35 80 63 99 192 131 192 49 220 60 208
79 -4 7 -17 7 -39 0 -38 -11 -166 -46 -220 -59 -77 -19 -131 -54 -153 -101
-54 -112 -55 -155 -4 -205 l30 -29 -35 -17 c-20 -9 -35 -24 -35 -34 0 -21 85
-102 127 -119 62 -27 195 -11 296 33 38 17 57 32 57 43 0 11 18 29 43 44 49
30 111 86 127 116 20 38 30 20 30 -53 0 -82 9 -97 55 -97 43 0 88 36 148 117
41 56 49 63 44 38 -4 -16 -10 -64 -13 -105 -6 -69 -5 -77 15 -95 28 -24 156
-37 149 -14 -3 8 -25 16 -55 19 -57 6 -83 23 -83 54 0 11 10 83 22 159 18 106
26 137 38 137 8 0 42 -12 75 -25 74 -31 170 -45 163 -24 -2 7 -29 19 -59 26
-97 21 -180 56 -173 73 37 96 50 248 23 275 -13 13 -18 14 -26 3z m-343 -427
c0 -18 -135 -144 -173 -161 -29 -13 -48 -15 -75 -9 -20 4 -72 11 -114 14 -43
4 -80 10 -83 14 -7 12 92 57 176 80 109 31 253 69 262 70 4 1 7 -3 7 -8z"/>
<path d="M1796 628 c-20 -70 -26 -100 -26 -129 0 -47 -22 -113 -60 -184 -41
-76 -44 -80 -107 -127 -57 -41 -86 -48 -99 -20 -4 9 -9 89 -11 177 -1 88 -3
162 -3 164 0 2 -7 -3 -16 -10 -24 -20 -17 -313 9 -352 27 -42 67 -36 140 18
56 43 124 130 128 165 1 8 5 -12 8 -44 10 -103 28 -78 33 46 3 62 14 150 23
194 10 45 15 89 12 98 -8 19 -26 21 -31 4z"/>
</g>
</svg>
